<svg xmlns="http://www.w3.org/2000/svg" version="1.1" xmlns:xlink="http://www.w3.org/1999/xlink" width="1000" height="1000"><style>
    #light-icon {
      display: inline;
    }
    #dark-icon {
      display: none;
    }

    @media (prefers-color-scheme: dark) {
      #light-icon {
        display: none;
      }
      #dark-icon {
        display: inline;
      }
    }
  </style><g id="light-icon"><svg xmlns="http://www.w3.org/2000/svg" version="1.1" xmlns:xlink="http://www.w3.org/1999/xlink" width="1000" height="1000"><g clip-path="url(#SvgjsClipPath1130)"><rect width="1000" height="1000" fill="#335c85"></rect><g transform="matrix(1.3671875,0,0,1.3671875,150,150)"><svg xmlns="http://www.w3.org/2000/svg" version="1.1" xmlns:xlink="http://www.w3.org/1999/xlink" width="512" height="512"><svg xmlns="http://www.w3.org/2000/svg" class="ionicon" viewBox="0 0 512 512"><path d="M463.1 112.37C373.68 96.33 336.71 84.45 256 48c-80.71 36.45-117.68 48.33-207.1 64.37C32.7 369.13 240.58 457.79 256 464c15.42-6.21 223.3-94.87 207.1-351.63z" fill="none" stroke="currentColor" stroke-linecap="round" stroke-linejoin="round" stroke-width="32"></path><path d="M256 48c-80.71 36.45-117.68 48.33-207.1 64.37C32.7 369.13 240.58 457.79 256 464z"></path></svg></svg></g></g><defs><clipPath id="SvgjsClipPath1130"><rect width="1000" height="1000" x="0" y="0" rx="350" ry="350"></rect></clipPath></defs></svg></g><g id="dark-icon"><svg xmlns="http://www.w3.org/2000/svg" version="1.1" xmlns:xlink="http://www.w3.org/1999/xlink" width="1000" height="1000"><g clip-path="url(#SvgjsClipPath1131)"><rect width="1000" height="1000" fill="#003366"></rect><g transform="matrix(1.3671875,0,0,1.3671875,150,150)"><svg xmlns="http://www.w3.org/2000/svg" version="1.1" xmlns:xlink="http://www.w3.org/1999/xlink" width="512" height="512"><svg xmlns="http://www.w3.org/2000/svg" class="ionicon" viewBox="0 0 512 512"><path d="M463.1 112.37C373.68 96.33 336.71 84.45 256 48c-80.71 36.45-117.68 48.33-207.1 64.37C32.7 369.13 240.58 457.79 256 464c15.42-6.21 223.3-94.87 207.1-351.63z" fill="none" stroke="currentColor" stroke-linecap="round" stroke-linejoin="round" stroke-width="32"></path><path d="M256 48c-80.71 36.45-117.68 48.33-207.1 64.37C32.7 369.13 240.58 457.79 256 464z"></path></svg></svg></g></g><defs><clipPath id="SvgjsClipPath1131"><rect width="1000" height="1000" x="0" y="0" rx="350" ry="350"></rect></clipPath></defs></svg></g></svg>